{
    "asset": {
        "copyright": "2025 (c) Adobe Inc.",
        "generator": "Adobe Substance 3D Stager - cfd5f8abf16eac3560f90b27a1db259d32723931",
        "version": "2.0"
    },
    "accessors": [
        {
            "bufferView": 0,
            "componentType": 5126,
            "count": 8640,
            "type": "VEC3",
            "max": [
                0.008366475813090802,
                0.007810141891241074,
                0.008369513787329197
            ],
            "min": [
                -0.008366475813090802,
                -0.007810141891241074,
                -0.008369511924684048
            ]
        },
        {
            "bufferView": 1,
            "componentType": 5126,
            "count": 8640,
            "type": "VEC3"
        },
        {
            "bufferView": 2,
            "componentType": 5126,
            "count": 8640,
            "type": "VEC2"
        },
        {
            "bufferView": 3,
            "componentType": 5125,
            "count": 8640,
            "type": "SCALAR",
            "max": [
                8639.0
            ],
            "min": [
                0.0
            ]
        },
        {
            "bufferView": 4,
            "componentType": 5126,
            "count": 4320,
            "type": "VEC3",
            "max": [
                0.008288340643048287,
                0.00837156642228365,
                0.00826217606663704
            ],
            "min": [
                -0.008288340643048287,
                -0.00837156642228365,
                -0.00826217606663704
            ]
        },
        {
            "bufferView": 5,
            "componentType": 5126,
            "count": 4320,
            "type": "VEC3"
        },
        {
            "bufferView": 6,
            "componentType": 5126,
            "count": 4320,
            "type": "VEC2"
        },
        {
            "bufferView": 7,
            "componentType": 5125,
            "count": 4320,
            "type": "SCALAR",
            "max": [
                4319.0
            ],
            "min": [
                0.0
            ]
        },
        {
            "bufferView": 8,
            "componentType": 5126,
            "count": 12960,
            "type": "VEC3",
            "max": [
                0.008202333934605122,
                0.007815128192305565,
                0.008239690214395523
            ],
            "min": [
                -0.008202333934605122,
                -0.007815128192305565,
                -0.008239690214395523
            ]
        },
        {
            "bufferView": 9,
            "componentType": 5126,
            "count": 12960,
            "type": "VEC3"
        },
        {
            "bufferView": 10,
            "componentType": 5126,
            "count": 12960,
            "type": "VEC4"
        },
        {
            "bufferView": 11,
            "componentType": 5126,
            "count": 12960,
            "type": "VEC2"
        },
        {
            "bufferView": 12,
            "componentType": 5125,
            "count": 12960,
            "type": "SCALAR",
            "max": [
                12959.0
            ],
            "min": [
                0.0
            ]
        }
    ],
    "bufferViews": [
        {
            "buffer": 0,
            "byteOffset": 0,
            "byteLength": 103680,
            "target": 34962
        },
        {
            "buffer": 0,
            "byteOffset": 103680,
            "byteLength": 103680,
            "target": 34962
        },
        {
            "buffer": 0,
            "byteOffset": 207360,
            "byteLength": 69120,
            "target": 34962
        },
        {
            "buffer": 0,
            "byteOffset": 276480,
            "byteLength": 34560,
            "target": 34963
        },
        {
            "buffer": 0,
            "byteOffset": 311040,
            "byteLength": 51840,
            "target": 34962
        },
        {
            "buffer": 0,
            "byteOffset": 362880,
            "byteLength": 51840,
            "target": 34962
        },
        {
            "buffer": 0,
            "byteOffset": 414720,
            "byteLength": 34560,
            "target": 34962
        },
        {
            "buffer": 0,
            "byteOffset": 449280,
            "byteLength": 17280,
            "target": 34963
        },
        {
            "buffer": 0,
            "byteOffset": 466560,
            "byteLength": 155520,
            "target": 34962
        },
        {
            "buffer": 0,
            "byteOffset": 622080,
            "byteLength": 155520,
            "target": 34962
        },
        {
            "buffer": 0,
            "byteOffset": 777600,
            "byteLength": 207360,
            "target": 34962
        },
        {
            "buffer": 0,
            "byteOffset": 984960,
            "byteLength": 103680,
            "target": 34962
        },
        {
            "buffer": 0,
            "byteOffset": 1088640,
            "byteLength": 51840,
            "target": 34963
        }
    ],
    "buffers": [
        {
            "byteLength": 1140480,
            "uri": "ball_binary.bin"
        }
    ],
    "materials": [
        {
            "pbrMetallicRoughness": {
                "metallicFactor": 0.0,
                "roughnessFactor": 0.029999999329447748
            },
            "name": "glass_material",
            "extensions": {
                "KHR_materials_volume": {
                    "attenuationColor": [
                        0.830769956111908,
                        0.8549929261207581,
                        0.8468729257583617
                    ],
                    "attenuationDistance": 1,
                    "thicknessFactor": 0
                },
                "KHR_materials_ior": {
                    "ior": 1.7999999523162842
                },
                "KHR_materials_transmission": {
                    "transmissionFactor": 1
                }
            }
        }
    ],
    "meshes": [
        {
            "name": "Icosphere-0_n3d",
            "primitives": [
                {
                    "attributes": {
                        "POSITION": 0,
                        "NORMAL": 1,
                        "TEXCOORD_0": 2
                    },
                    "indices": 3,
                    "material": 0
                }
            ]
        },
        {
            "name": "Icosphere-1_n3d",
            "primitives": [
                {
                    "attributes": {
                        "TEXCOORD_0": 6,
                        "NORMAL": 5,
                        "POSITION": 4
                    },
                    "indices": 7,
                    "material": 0
                }
            ]
        },
        {
            "name": "Icosphere-2_n3d",
            "primitives": [
                {
                    "attributes": {
                        "POSITION": 8,
                        "NORMAL": 9,
                        "TANGENT": 10,
                        "TEXCOORD_0": 11
                    },
                    "indices": 12,
                    "material": 0
                }
            ]
        }
    ],
    "nodes": [
        {
            "name": "working_cam_n3d"
        },
        {
            "children": [
                2,
                3,
                4
            ],
            "translation": [
                3.814697180359872e-8,
                0.4185783267021179,
                0.0
            ],
            "scale": [
                50.0,
                50.0,
                50.0
            ],
            "name": "adobe-assets_n3d"
        },
        {
            "translation": [
                0.04076245054602623,
                0.05903862044215202,
                -0.010054538957774639
            ],
            "rotation": [
                0.1690755933523178,
                0.7558804154396057,
                -0.2721712589263916,
                0.5709474682807922
            ],
            "scale": [
                1.0000001192092896,
                1.0,
                1.0
            ],
            "name": "Light"
        },
        {
            "translation": [
                0.07358891516923905,
                0.04958309233188629,
                0.06925790756940842
            ],
            "rotation": [
                0.483536034822464,
                0.3368716239929199,
                -0.2087036371231079,
                0.7804826498031616
            ],
            "name": "Camera"
        },
        {
            "children": [
                5,
                6,
                7
            ],
            "name": "Icosphere_n3d"
        },
        {
            "mesh": 0,
            "name": "Icosphere-0_n3d"
        },
        {
            "mesh": 1,
            "name": "Icosphere-1_n3d"
        },
        {
            "mesh": 2,
            "name": "Icosphere-2_n3d"
        }
    ],
    "scenes": [
        {
            "nodes": [
                1
            ],
            "name": "scene"
        }
    ],
    "scene": 0,
    "extensionsUsed": [
        "KHR_materials_transmission",
        "KHR_materials_ior",
        "KHR_materials_volume"
    ]
}